<mxfile host="Electron" modified="2024-02-24T00:50:38.011Z" agent="Mozilla/5.0 (Macintosh; Intel Mac OS X 10_15_7) AppleWebKit/537.36 (KHTML, like Gecko) draw.io/23.1.5 Chrome/120.0.6099.109 Electron/28.1.0 Safari/537.36" etag="JnI3Viq94qUwWvRv_Qhf" version="23.1.5" type="device">
  <diagram name="페이지-1" id="FsjQNnbAOQAzkKYBJm4k">
    <mxGraphModel dx="1114" dy="894" grid="1" gridSize="10" guides="1" tooltips="1" connect="1" arrows="1" fold="1" page="1" pageScale="1" pageWidth="827" pageHeight="1169" math="0" shadow="0">
      <root>
        <mxCell id="0" />
        <mxCell id="1" parent="0" />
        <mxCell id="-OmH3gwVNt2ecJOlIzJy-1" value="{&lt;br&gt;&lt;div style=&quot;&quot;&gt;&lt;span style=&quot;background-color: initial;&quot;&gt;&amp;nbsp; &amp;nbsp;&quot;alg&quot;: &quot;HS256&quot;&lt;/span&gt;&lt;/div&gt;}" style="rounded=0;whiteSpace=wrap;html=1;align=left;spacingLeft=8;" vertex="1" parent="1">
          <mxGeometry x="160" y="240" width="120" height="70" as="geometry" />
        </mxCell>
        <mxCell id="-OmH3gwVNt2ecJOlIzJy-2" value="{&lt;br&gt;&lt;div style=&quot;&quot;&gt;&lt;span style=&quot;background-color: initial;&quot;&gt;&amp;nbsp; &amp;nbsp;&quot;username&quot;: &quot;assu&quot;,&lt;/span&gt;&lt;/div&gt;&lt;div style=&quot;&quot;&gt;&lt;span style=&quot;background-color: initial;&quot;&gt;&amp;nbsp; &amp;nbsp;&quot;roles&quot;: [&quot;admin&quot;]&lt;/span&gt;&lt;/div&gt;}" style="rounded=0;whiteSpace=wrap;html=1;align=left;spacingLeft=8;" vertex="1" parent="1">
          <mxGeometry x="300" y="240" width="140" height="70" as="geometry" />
        </mxCell>
        <mxCell id="-OmH3gwVNt2ecJOlIzJy-3" value="헤더와 본문을 바탕으로 &lt;br&gt;생성된 해시" style="rounded=0;whiteSpace=wrap;html=1;align=left;spacingLeft=8;" vertex="1" parent="1">
          <mxGeometry x="460" y="240" width="140" height="70" as="geometry" />
        </mxCell>
        <mxCell id="-OmH3gwVNt2ecJOlIzJy-4" value="헤더" style="text;html=1;align=center;verticalAlign=middle;whiteSpace=wrap;rounded=0;" vertex="1" parent="1">
          <mxGeometry x="141" y="216" width="60" height="30" as="geometry" />
        </mxCell>
        <mxCell id="-OmH3gwVNt2ecJOlIzJy-5" value="본문" style="text;html=1;align=center;verticalAlign=middle;whiteSpace=wrap;rounded=0;" vertex="1" parent="1">
          <mxGeometry x="280" y="215" width="60" height="30" as="geometry" />
        </mxCell>
        <mxCell id="-OmH3gwVNt2ecJOlIzJy-6" value="서명" style="text;html=1;align=center;verticalAlign=middle;whiteSpace=wrap;rounded=0;" vertex="1" parent="1">
          <mxGeometry x="442" y="216" width="60" height="30" as="geometry" />
        </mxCell>
        <mxCell id="-OmH3gwVNt2ecJOlIzJy-11" value="마침표로 분리된 3 개의 Base64 로 인코딩으로 구성됨" style="text;html=1;align=center;verticalAlign=middle;whiteSpace=wrap;rounded=0;fillColor=#d5e8d4;strokeColor=#82b366;sketch=1;curveFitting=1;jiggle=2;" vertex="1" parent="1">
          <mxGeometry x="240" y="400" width="270" height="30" as="geometry" />
        </mxCell>
        <mxCell id="-OmH3gwVNt2ecJOlIzJy-15" value="eyfjkslfdklsafmUFDSa&amp;nbsp; &amp;nbsp;.&amp;nbsp; eyfjkslfdklsafmUFDSa&amp;nbsp; &amp;nbsp; .&amp;nbsp; &amp;nbsp; wfdseyfjkslfdklsafmUFDSa" style="text;html=1;align=center;verticalAlign=middle;whiteSpace=wrap;rounded=0;fillColor=#f5f5f5;fontColor=#333333;strokeColor=#666666;" vertex="1" parent="1">
          <mxGeometry x="160" y="340" width="440" height="30" as="geometry" />
        </mxCell>
      </root>
    </mxGraphModel>
  </diagram>
</mxfile>
